# xmcd CD database file
#
# Track frame offsets:
#	150
#	18714
#	23236
#	72198
#	96476
#	120348
#	136770
#	164849
#	178473
#
# Disc length: 2653 seconds
#
# Revision: 0
# Processed by: cddbd v1.5.2PL0 Copyright (c) Steve Scherf et al.
# Submitted via: jetAudio 7
#
DISCID=800a5b09
DTITLE=Charles Davis - Call me Daddy Cool
DYEAR=1900
DGENRE=Adult Contemporary
TTITLE0=Blow my rhythm
TTITLE1=Merry X-Mas Man
TTITLE2=Call Me Daddy Cool
TTITLE3=The Battle For Sanity
TTITLE4=Finally Say
TTITLE5=Full Moon Street
TTITLE6=Past Tense
TTITLE7=Call me Daddy Cool
TTITLE8=Longer Way Around
EXTD=
EXTT0=
EXTT1=
EXTT2=
EXTT3=
EXTT4=
EXTT5=
EXTT6=
EXTT7=
EXTT8=
PLAYORDER=
